<svg id="Layer_1" xmlns="http://www.w3.org/2000/svg" viewBox="0 0 24 16"><style>.bg{fill:#8c2633}.fg{fill:#e2d6b5}.dark{fill:#111}</style><g id="reg" class="dark"><path d="M14.404 13.358a.314.314 0 0 0 0 .63.315.315 0 0 0 0-.63zm0 .564a.248.248 0 0 1 0-.496c.137 0 .247.11.247.248s-.11.248-.246.248z"/><path d="M14.533 13.6a.106.106 0 0 0-.106-.106h-.152v.36h.067v-.145h.048l.07.145h.073l-.07-.153a.11.11 0 0 0 .07-.1zm-.106.04h-.085v-.078h.085c.02 0 .04.018.04.04s-.02.038-.04.038z"/></g><path class="dark" d="M18.46 6.343c-.04.443-.44.858-.44.858l-.332-.162-.273-.733L18.6 3.83c.084.167.13.334.13.334.17-.34.195-.682.17-.96l.22-.462L19 .942c-.06-.243-.295-.483-.59-.576a.807.807 0 0 0-.76.126L13.614 3.61c-2.05.058-3.566.955-4.495 2.527L4.653 9.73s.828 1.568 2.73 1.38l1.227-.22c.132.57.868 3.862 3.716 4.66-.482-.93-1.106-2.58-.494-3.934.815 2.618 2.01 2.545 2.01 2.545-1.155-1.64-.213-3.384-.213-3.384.47.806 1.15 1.164 1.705 1.164 0 0-.814-1.072-.385-2.476l2.533.093 1.137-.477.697-1.27-.547-.247c.17-.773-.31-1.22-.31-1.22z"/><path class="bg" d="M18.544 7.63h.002c.023-.093.127-.568-.017-.893-.126.38-.35.59-.448.668l-.56-.27.003.002 1.146.74-.7.165-.627-.232h.002l-.004-.002c.038-.19.097-.604-.036-.905-.13.39-.35.618-.47.72l-.604-.225-.508-1.326 1.844-2.98c.105.11.218.26.31.458.09-.293.004-.67-.056-.867l.224-.362.525-.38.097.494-.876 2.427.695-1.496c.03.024.094.074.237.37.073-.234-.038-.755-.038-.755l.203-.388-.096-1.507c-.08.128-.162.404-.197.514-.17-1.16-.62-.3-.73-.994l-.373.29c-.03.145-.076.44-.085.884 0 0-.262-.275-.345-.537a5.772 5.772 0 0 0-.093.97s-.292-.31-.382-.6a6.44 6.44 0 0 0-.1 1.057s-.314-.332-.415-.647c-.04.2-.097.586-.11 1.16 0 0-.367-.39-.467-.746L13.64 3.87c-.123.146-.702.735-.914 1.62 0 0 0-.625.05-.817-.164.117-.776.597-1.11.944 0 0 .04-.63.3-.99-.548.4-1.382 1.246-1.382 1.246.69-1.193 1.243-1.548 1.52-1.78-1.394.442-2.604 1.42-3.134 3.072 0 0 .01-.33.06-.603L5.078 9.69s.61 1.12 2.323 1.076l2.238-.355s-.223-.597-.2-1.02c.27.943.74 1.293.74 1.293l-1.255.166c.228.824.727 3.145 3 4.236a4.85 4.85 0 0 1-.533-2.803c.144-.968.637-1.557.637-1.557.08 1.136.62 1.995.97 2.443.093.127.194.245.31.347 0 0-.46-.828-.124-2.313.03-.084.284-.796.545-1.057.338.955 1.163 1.323 1.163 1.323-.588-1.218-.076-2.386-.076-2.386l2.672.1.996-.418.513-.932-.45-.204z"/><g class="dark"><path d="M14.947 5.482l2.792-3.17-2.937 3.008s-.73.124-1.788.96c.53 1.017-2 4.192-3.072 3.35.22.646 1.015.382 1.015.382-.106.247-1.146 2.03.22 4.148-2.227-3.605 2.984-7.14 3.27-7.254-.07-.488-.797-.63-.797-.63.345-.444 1.405-.82 1.297-.794zM8.72 7.292c-.167.14-.61.5-1.11.9a795.13 795.13 0 0 1-1.977 1.577c.285.51.954.65 1.345.687.18.018.3.014.3.014l1.903-.336s-2.748-.626-.46-2.842z"/></g><path class="bg" d="M16.89 6.162l.414.59-.234-.584.234-.602z"/><path class="fg" d="M18.544 7.63h.002c.023-.094.127-.568-.017-.893-.126.38-.35.59-.448.668l-.56-.27h.003l1.146.743-.7.164-.627-.232h.002l-.004-.002c.038-.19.097-.604-.036-.904a1.6 1.6 0 0 1-.47.72l-.604-.226-.508-1.326 1.844-2.98c.105.11.218.26.31.458.09-.293.004-.67-.056-.867l.224-.362.525-.38.097.494-.876 2.427.695-1.496c.03.024.094.074.237.37.073-.234-.038-.755-.038-.755l.203-.388-.3-.748-.85.47-2.79 3.168c.106-.027-.953.35-1.3.794 0 0 .73.14.797.63-.284.112-5.495 3.648-3.268 7.253.194.302.438.612.744.926a4.85 4.85 0 0 1-.533-2.803c.15-1.353.807-2.27.807-2.27s-.02 2.008.8 3.156c.093.127.194.245.31.347 0 0-.46-.828-.124-2.313.118-.528.336-1.14.71-1.824-.232 1.095.756 1.875.998 2.09-.59-1.217-.077-2.385-.077-2.385l2.673.1.926-.907.07.49.512-.933-.448-.205zM5.633 9.77c.285.51.954.65 1.345.687-.113-.11-.49-.506-.374-.796 0 0 .318.25.75.297 0 0-.358-.996.255-1.766-.897.72-1.977 1.58-1.977 1.58zM12.94 4.377c.04-.128-.214-.102-.214-.102.176-.115.355-.183.446-.212.063-.078.116-.14.143-.17-.125.01-.45.08-1.086.534.258-.05.54-.064.71-.05z"/><path class="dark" d="M16.175 5.008l-.852 1.033.74 1.367-.502-1.366z"/></svg>